<svg height="360" viewBox="0 0 543 360" width="543" xmlns="http://www.w3.org/2000/svg" xmlns:xlink="http://www.w3.org/1999/xlink"><linearGradient id="a" x1="71.150897%" x2="34.200858%" y1="45.869736%" y2="68.421099%"><stop offset="0" stop-color="#f7fbff"/><stop offset="1" stop-color="#d9ebff"/></linearGradient><linearGradient id="b"><stop offset="0" stop-color="#ffcd76"/><stop offset="1" stop-color="#ff7154"/></linearGradient><linearGradient id="c" x1="0%" x2="154.759228%" xlink:href="#b" y1="50%" y2="50%"/><linearGradient id="d"><stop offset="0" stop-color="#6060fa"/><stop offset="1" stop-color="#161874"/></linearGradient><linearGradient id="e" x1="47.067953%" x2="53.556124%" xlink:href="#d" y1="18.017408%" y2="83.616995%"/><linearGradient id="f" x1="53.135559%" x2="47.739805%" xlink:href="#d" y1="-4.503972%" y2="106.138374%"/><linearGradient id="g" x1="61.632336%" x2="41.615099%" xlink:href="#d" y1="-4.503972%" y2="106.138374%"/><linearGradient id="h"><stop offset="0" stop-color="#00e5ff"/><stop offset="1" stop-color="#008cff"/></linearGradient><linearGradient id="i" x1="31.857998%" x2="68.142002%" xlink:href="#h" y1="95.854475%" y2="0%"/><linearGradient id="j" x1="154.759228%" x2="0%" xlink:href="#b" y1="50%" y2="50%"/><linearGradient id="k" x1=".064352%" x2="99.935648%" xlink:href="#h" y1="95.854475%" y2="0%"/><linearGradient id="l" x1="0%" x2="100%" xlink:href="#h" y1="53.362615%" y2="46.333384%"/><linearGradient id="m" x1="0%" x2="100%" xlink:href="#h" y1="50.339224%" y2="49.630108%"/><linearGradient id="n" x1="0%" x2="100%" xlink:href="#h" y1="50.641979%" y2="49.299983%"/><linearGradient id="o" x1="69.328579%" x2="36.067439%" xlink:href="#d" y1="-4.503972%" y2="106.138374%"/><linearGradient id="p" x1="0%" x2="100%" xlink:href="#h" y1="54.623531%" y2="44.958473%"/><linearGradient id="q" x1="0%" x2="100%" xlink:href="#h" y1="50.251539%" y2="49.72572%"/><linearGradient id="r" x1="2.965419%" x2="110.642346%" y1="49.912069%" y2="50.097801%"><stop offset="0" stop-color="#1672eb"/><stop offset="1" stop-color="#001f51"/></linearGradient><linearGradient id="s" x1="45.83473%" x2="54.16527%" xlink:href="#h" y1="95.854475%" y2="0%"/><linearGradient id="t" x1=".377259%" x2="99.622741%" xlink:href="#h" y1="95.854475%" y2="0%"/><linearGradient id="u" x1="0%" x2="100%" xlink:href="#h" y1="92.469329%" y2="3.691185%"/><linearGradient id="v"><stop offset="0" stop-color="#36c9ff"/><stop offset="1" stop-color="#fff"/></linearGradient><linearGradient id="w" x1="-8.585389%" x2="99.748197%" xlink:href="#v" y1="131.29327%" y2="0%"/><linearGradient id="x" x1="28.976822%" x2="80.824472%" xlink:href="#v" y1="100%" y2="0%"/><linearGradient id="y" x1="0%" x2="100%" xlink:href="#h" y1="84.446588%" y2="12.439231%"/><linearGradient id="z"><stop offset="0" stop-color="#176ee5"/><stop offset="1" stop-color="#1d3e94"/></linearGradient><linearGradient id="A" x1="0%" x2="110.642346%" xlink:href="#z" y1="25.974184%" y2="75.253604%"/><linearGradient id="B"><stop offset="0" stop-color="#166fe6"/><stop offset="1" stop-color="#032964"/></linearGradient><linearGradient id="C" x1="88.120966%" x2="22.521379%" xlink:href="#B" y1="15.965161%" y2="85.055437%"/><linearGradient id="D" x1="0%" x2="110.642346%" xlink:href="#z" y1="45.176356%" y2="55.070147%"/><linearGradient id="E" x1="35.413434%" x2="91.668925%" xlink:href="#v" y1="104.705514%" y2="0%"/><linearGradient id="F" x1="14.896641%" x2="92.575001%" xlink:href="#z" y1="18.017408%" y2="83.616995%"/><linearGradient id="G" x1="88.120966%" x2="22.521379%" xlink:href="#B" y1="47.978299%" y2="52.082326%"/><linearGradient id="H" x1="29.680039%" x2="78.18979%" xlink:href="#B" y1="106.138374%" y2="-4.503972%"/><linearGradient id="I" x1="24.188603%" x2="81.305273%" xlink:href="#z" y1="18.017408%" y2="83.616995%"/><linearGradient id="J" x1="23.386488%" x2="82.278116%" xlink:href="#z" y1="18.017408%" y2="83.616995%"/><linearGradient id="K" x1="0%" x2="110.642346%" xlink:href="#z" y1="41.172774%" y2="59.278323%"/><linearGradient id="L" x1="0%" x2="100%" xlink:href="#h" y1="91.406244%" y2="4.850379%"/><linearGradient id="M" x1="40.844045%" x2="59.155955%" xlink:href="#h" y1="95.854475%" y2="0%"/><linearGradient id="N" x1="0%" x2="100%" xlink:href="#h" y1="64.849862%" y2="33.80762%"/><g fill="none" fill-rule="evenodd"><g transform="translate(0 .3614)"><path d="m446.279801 45.4072786c-52.069799-36.04857989-97.044504-50.57055191-134.924116-43.56591602-56.819417 10.50695382-56.802162 86.34184172-111.378481 104.48854242-54.576318 18.146701-150.4636139 32.937392-180.8317202 80.70569-30.3681064 47.768298-26.59970043 92.447601 52.9371308 127.057989 79.5368314 34.610388 130.4068604 50.298504 221.5629434 42.454446 91.156082-7.844058 218.091316-40.148819 243.883501-114.814653 17.19479-49.777222-13.221629-115.219255-91.249258-196.3260984z" fill="url(#a)"/><ellipse cx="7.02436" cy="210.24725" fill="#fff" rx="6.30446" ry="6.306048" stroke="url(#c)" stroke-width="3.4398"/><g transform="translate(53.672713 60.206885)"><g transform="matrix(-1 0 0 1 113.55755 0)"><path d="m54.7212202 269.874864s-.8898028 3.006221-3.6716074 6.012441c-2.7818045 3.006221-8.5702059 5.12275-9.4600087 6.902132-.8898028 1.779383 7.9051954 1.114456 12.9068238.224765 5.0109947-.889692 7.568007-1.442237 7.9051954-3.230985.3371885-1.788748-.6650105-10.236134-.6650105-10.236134z" fill="#6fa9f6"/><path d="m97.1525715 268.290343s1.0021989 5.562913 0 7.679442c-1.002199 2.116529-1.5548133 3.78353-.4495846 4.223693 1.1145951.449528 8.0082251.664927 11.9046251.224764 3.896399-.449528 4.121192-3.006221 3.118993-4.223693-1.002199-1.226838-3.118993-2.116529-4.008796-5.225766-.889803-3.118603-.665011-5.338149-.665011-5.338149z" fill="#6fa9f6"/><path d="m50.7217908 117.540967s-8.0082253 68.318934-6.9029965 78.555068c1.1145951 10.236134 8.4578098 74.996302 8.4578098 74.996302s10.0126231 2.004147 11.3520105.224764-1.3393874-67.654007-.6650105-72.992155c.6650105-5.338148 18.9200175-83.893216 18.9200175-83.893216z" fill="url(#e)"/><path d="m63.17903 119.104951 5.0109947 17.353665 4.0087958 4.176867s14.5272016 54.908007 15.0236179 59.253447c.4964163 4.336075 9.1790184 68.768462 9.1790184 68.768462s4.6738062.8335 8.3454132.337146c3.671608-.496354 4.336618-2.669074 4.336618-2.669074s-2.669408-63.252376-3.334419-71.268963c-.66501-8.016588-2.838002-57.586446-5.170222-69.770536-2.3322202-12.184089-7.3432149-16.192383-7.3432149-16.192383z" fill="url(#f)"/><path d="m50.15981 51.1137985s-1.1145951-.8896914-2.4446161-.1123821c-1.3393874.7773093-14.1338151 21.4743407-14.1338151 21.4743407s.7774067 5.3381483 3.5592113 7.9042056c2.7818045 2.5566921 5.9007975 5.9000587 6.2286196 5.6752946.3371884-.2247642 6.1162235-6.1154577 8.898028-12.4650447 2.7911709-6.3402218-2.1074277-22.4764141-2.1074277-22.4764141z" fill="url(#g)"/><path d="m48.829789 48.5571063s8.898028-5.3381483 16.2506091-7.6794415c7.3432147-2.3412931 15.136014-2.116529 18.1426109-1.4422365 3.0065968.6649272 5.2264206 8.793897 5.2264206 8.793897s1.6672095 34.2671664 2.1167941 38.0506961 5.1233909 22.2516496 6.7906003 25.0331066c1.6672095 2.781456 2.33222 7.229913.6650105 7.791823-1.6672094.552545-20.8120192 2.893839-27.0406389 3.446384-6.2286196.552545-19.1448098 3.118602-21.1398413 2.556692-2.0043979-.552545-.5526144-6.564986-.5526144-12.015517 0-5.45053 1.1145951-22.1392675.6650105-29.3785459-.4495845-7.2299132-2.2291901-13.354736-2.6694084-22.9259424-.4589509-9.5618412-.3465547-10.5639146 1.545447-12.2309154z" fill="url(#i)"/><g transform="matrix(-1 0 0 1 73.820522 42.491054)"><rect fill="url(#j)" height="43.064571" rx="4.095" width="49.214027" x="12.636034" y="24.538074"/><g transform="matrix(.93358043 .35836795 -.35836795 .93358043 39.897741 .062028)"><path d="m23.722765 0 10.7656067 10.7642587v34.9197438c0 .8138896-.6598705 1.4736775-1.473862 1.4736775h-31.54064766c-.81399153 0-1.47386204-.6597879-1.47386204-1.4736775v-44.210325c0-.81388961.65987051-1.4736775 1.47386204-1.4736775z" fill="#1c46a1"/><path d="m34.4883717 11.0306954h-9.5493946c-.8141782 0-1.4742001-.6600218-1.4742001-1.47420005v-9.55649535h.257988l10.7656067 10.7642587z" fill="url(#k)"/><rect fill="url(#l)" height="3.831562" rx="1.4742" width="14.149076" x="3.537269" y="10.021007"/><g fill="url(#m)"><rect height="2.357884" opacity=".5" rx="1.178942" width="27.413834" x="3.537269" y="18.892"/><rect height="2.357884" opacity=".5" rx="1.178942" width="27.413834" x="3.537269" y="23.4604"/><rect height="2.357884" rx="1.178942" width="27.413834" x="3.537269" y="28.0288"/></g><rect fill="url(#n)" height="2.357884" opacity=".5" rx="1.178942" width="19.927508" x="3.537269" y="35.986659"/></g><path d="m20.5525355 24.5380742h28.5223858c.9182485 0 1.8616455.7712266 2.1071362 1.7225828l10.2235034 39.619405c.2454906.9513562-.2998874 1.7225828-1.2181359 1.7225828h-45.888755c-.9182485 0-1.8616455-.7712266-2.1071362-1.7225828l-10.22350336-39.619405-1.77800059-6.8903313c-.24549065-.9513562.29988737-1.7225828 1.2181359-1.7225828h15.70373315c.9182485 0 1.8616455.7712266 2.1071362 1.7225828z" fill="url(#c)"/></g><g fill="#6fa9f6"><path d="m44.4398687 103.17729s3.4187246 1.00215 6.3410133 1.002213c2.9222887.000062 3.1751684-.496288 3.1751684-.496288l-.6650812-3.418316s1.582901-.252826 2.6694002.084344c1.0864991.337171 3.2595151 1.835651 4.7581247 1.835683s20.86798-7.4038187 26.0381456-9.1550019 5.1700708-6.175837 5.1700708-6.175837-4.0933473-12.6056576-4.1777031-15.3590305c-.0843557-2.7533729-.0001037-4.8418125-.0001037-4.8418125l13.8527473-1.1703544s3.756221 15.4433083 4.177755 17.7752541 2.500992 8.7658882 1.414532 10.2642982c-1.086459 1.49841-10.265279 9.159615-23.7058802 11.659838s-21.4487926 2.668625-21.4487926 2.668625-5.4230327 2.837542-7.2588116 3.671006-8.092474.833331-11.436302-1.751538-.0750734-6.677395 1.0957171-6.593083z" transform="matrix(.98480775 -.17364818 .17364818 .98480775 -14.276459 14.318486)"/><path d="m63.8534069 27.1389567 5.6760052 11.6034488s1.0864961 2.4162145-.1685942 4.0082938c-1.2550903 1.5920794-5.507411 4.5889346-6.7625013 3.090507s-.7493076-3.2590801-.8336047-4.9260808-4.7581034-9.2621556-4.7581034-9.2621556l2.6694084-5.7595812 1.086496-2.500501z"/><path d="m44.2121808 19.0193521s1.3955854 10.2361336 3.8963996 12.9613988 5.9569956 3.9521028 9.0104242 3.3901925c3.0534286-.5619104 6.9029965-4.176867 6.9591946-7.4546774.056198-3.2778104-1.4424172-8.2881777-1.4424172-8.2881777l-3.4468151-6.1716487-3.6154093-1.4984276s-2.7256065-.2809552-3.3344189-.1123821c-.6088125.1685731-3.5592112 3.5587656-3.5592112 3.5587656l-1.8920018 2.6128831z"/></g><path d="m62.7950099 6.94764463s-1.1707932-4.89798525-4.2242218-6.17164872c-3.0534285-1.27366347-6.1162235.44952829-7.6804031 2.38811901-1.5641797 1.93859072-5.2264207 6.28403079-7.511809 6.67736804-2.2853882.39333724-6.2286196 2.66907414-6.2848177 3.95210284-.056198 1.2830286 2.8380027 3.3901924 2.8380027 3.3901924s-2.33222 1.7231918-.8336048 3.1186025c1.4986153 1.3954107 3.8402016 2.388119 6.7906004 1.3954107 2.9503987-1.0020734 6.2848177-3.1747935 7.3994128-4.3360749 1.1145951-1.1706465 2.8380026-3.3340014 2.8380026-3.3340014s1.3955854 3.2778104 2.7256065 3.8397207c1.3393874.5525452 2.2853882 2.1727201 3.118993 3.6149567.8336047 1.4422365.7774066 3.3340014.7774066 3.3340014s.7774067 3.8959118 1.3393874 4.504648c.5526144.6087362 1.2831893 1.4422366 1.2831893 1.4422366s.5526144-3.7835298 2.33222-5.7314856c1.7796056-1.9479559 4.2242217-5.5067215 3.6154093-9.7397795-.6088125-4.233058-2.8380026-7.84801462-4.5614102-8.4005598-1.7234075-.55254518-3.961964.05619103-3.961964.05619103z" fill="#0029a3"/><path d="m80.5136261 68.3743381s7.6803645-.4493655 12.6819407-2.0038829 5.6759457-1.779268 5.7883082-3.3338901c.1123624-1.5546221-1.892271-12.905297-4.0091786-18.5806584-2.1169076-5.6753613-7.680548-8.1197997-11.5769283-7.9044833-3.8963802.2246815-5.451171 1.0019605-6.6780717 5.0102432-1.2269008 4.0082827.7777039 14.0197329.5530053 18.3558194s3.2409244 8.4568521 3.2409244 8.4568521z" fill="url(#o)" transform="matrix(.98480775 -.17364818 .17364818 .98480775 -7.777294 16.017852)"/></g><path d="m92.6632278 108.233637c.534509-.887441 1.0780921-1.571354 1.6307495-2.051737 1.7527077-1.523499 8.4729927-.878867 8.4729927 0 0 .878866.030658 5.776421-2.9488506 5.776421-1.2770772 0-2.9604658 0-5.0501658 0v.000009c-1.3569686 0-2.4570091-1.10004-2.4570091-2.457009 0-.44673.121795-.885006.3522833-1.267684z" fill="#6fa9f6"/></g><path d="m382.764696 344.299159h-338.2229748c-2.7139274 0-4.9140002-2.200073-4.9140002-4.914v-67.698662c0-4.676102 1.9985278-9.129271 5.4920511-12.237523l27.097256-24.108927h310.5476679z" fill="url(#p)"/><ellipse cx="54.269827" cy="325.437115" fill="#fff" opacity=".5" rx="4.503467" ry="4.502903"/><ellipse cx="65.733198" cy="325.437115" fill="#fff" opacity=".5" rx="4.503467" ry="4.502903"/><rect fill="url(#q)" height="32.748389" rx="16.374194" width="442.158612" x="49.766359" y="217.776786"/><path d="m71.0554775 243.156788c-4.9743927 0-9.0069347-4.032038-9.0069347-9.005807 0-4.97377 4.032542-9.005807 9.0069347-9.005807 4.9743926 0 9.0069347 4.032037 9.0069347 9.005807 0 4.973769-4.0325421 9.005807-9.0069347 9.005807zm29.3351585 0c-4.9743923 0-9.0069343-4.032038-9.0069343-9.005807 0-4.97377 4.032542-9.005807 9.0069343-9.005807 4.974393 0 9.006935 4.032037 9.006935 9.005807 0 4.973769-4.032542 9.005807-9.006935 9.005807zm28.658429 0c-4.974393 0-9.006935-4.032038-9.006935-9.005807 0-4.97377 4.032542-9.005807 9.006935-9.005807s9.006935 4.032037 9.006935 9.005807c0 4.973769-4.032542 9.005807-9.006935 9.005807zm28.658428 0c-4.974392 0-9.006934-4.032038-9.006934-9.005807 0-4.97377 4.032542-9.005807 9.006934-9.005807 4.974393 0 9.006935 4.032037 9.006935 9.005807 0 4.973769-4.032542 9.005807-9.006935 9.005807zm28.658429 0c-4.974393 0-9.006935-4.032038-9.006935-9.005807 0-4.97377 4.032542-9.005807 9.006935-9.005807s9.006935 4.032037 9.006935 9.005807c0 4.973769-4.032542 9.005807-9.006935 9.005807zm28.658429 0c-4.974393 0-9.006935-4.032038-9.006935-9.005807 0-4.97377 4.032542-9.005807 9.006935-9.005807 4.974392 0 9.006934 4.032037 9.006934 9.005807 0 4.973769-4.032542 9.005807-9.006934 9.005807zm28.658428 0c-4.974393 0-9.006935-4.032038-9.006935-9.005807 0-4.97377 4.032542-9.005807 9.006935-9.005807s9.006935 4.032037 9.006935 9.005807c0 4.973769-4.032542 9.005807-9.006935 9.005807zm28.658429 0c-4.974393 0-9.006935-4.032038-9.006935-9.005807 0-4.97377 4.032542-9.005807 9.006935-9.005807 4.974392 0 9.006934 4.032037 9.006934 9.005807 0 4.973769-4.032542 9.005807-9.006934 9.005807zm28.658428 0c-4.974393 0-9.006935-4.032038-9.006935-9.005807 0-4.97377 4.032542-9.005807 9.006935-9.005807s9.006935 4.032037 9.006935 9.005807c0 4.973769-4.032542 9.005807-9.006935 9.005807zm28.658429 0c-4.974393 0-9.006935-4.032038-9.006935-9.005807 0-4.97377 4.032542-9.005807 9.006935-9.005807 4.974392 0 9.006934 4.032037 9.006934 9.005807 0 4.973769-4.032542 9.005807-9.006934 9.005807zm28.658428 0c-4.974392 0-9.006934-4.032038-9.006934-9.005807 0-4.97377 4.032542-9.005807 9.006934-9.005807 4.974393 0 9.006935 4.032037 9.006935 9.005807 0 4.973769-4.032542 9.005807-9.006935 9.005807zm28.658429 0c-4.974393 0-9.006935-4.032038-9.006935-9.005807 0-4.97377 4.032542-9.005807 9.006935-9.005807 4.974392 0 9.006934 4.032037 9.006934 9.005807 0 4.973769-4.032542 9.005807-9.006934 9.005807z" fill="url(#r)" fill-rule="nonzero"/><rect fill="url(#s)" height="121.987749" rx="8.19" width="35.208927" x="468.998228" y="207.13356"/><path d="m334.238358 151.812182v193.271644c0 3.618569 2.93343 6.552 6.552 6.552h139.087661c3.61857 0 6.552-2.933431 6.552-6.552v-154.276344c0-3.61857-2.93343-6.552001-6.552-6.552001h-24.311228c-5.41552 0-10.591112-2.234331-14.305159-6.175615l-25.107887-26.644069c-3.714047-3.941284-8.889639-6.175615-14.305159-6.175615h-61.058228c-3.61857 0-6.552 2.93343-6.552 6.552z" fill="#edeffb"/><g transform="translate(277.236611 72.940117)"><ellipse cx="19.680098" cy="19.867887" fill="#0029a3" rx="13.395429" ry="13.446252"/><ellipse cx="19.680098" cy="19.867887" fill="url(#t)" opacity=".3" rx="19.644734" ry="19.719267"/><path d="m24.943384 13.3033087c.5142457-.771509 1.5541918-.9784804 2.3227847-.4622836s.974782 1.5600886.4605363 2.3315975l-7.8104713 11.7178392c-.6004659.9008629-1.8808639 1.0040904-2.6168704.210976l-5.810777-6.2616454c-.6303241-.679232-.5927576-1.7427758.0839072-2.3754913.6766647-.6327156 1.7361885-.5950066 2.3665126.0842254l4.3696448 4.7086932z" fill="#fefefe"/></g><g transform="translate(457.534857 73.683875)"><path d="m60.1060242 75.0150322h-56.51695945c-1.98912022 0-3.58906475-1.6141563-3.58906475-3.6030274v-67.80897731c0-1.98887118 1.61435844-3.60302749 3.58906475-3.60302749h56.51695945c1.9891202 0 3.6034787 1.61415631 3.6034787 3.60302749v67.80897731c-.0144139 1.9888711-1.6143585 3.6030274-3.6034787 3.6030274z" fill="url(#c)"/><g fill="#fff"><path d="m50.7658075 59.781432h-37.85094c-.9513183 0-1.7152558-.7638418-1.7152558-1.715041 0-.9511993.7639375-1.7150411 1.7152558-1.7150411h37.85094c.9513184 0 1.7152558.7638418 1.7152558 1.7150411 0 .9511992-.7639374 1.715041-1.7152558 1.715041z" opacity=".4"/><path d="m43.587678 53.2671583h-23.480267c-.9945601 0-1.7873254-.8070781-1.7873254-1.7871016v-2.0753438c0-.9944356.8071792-1.7871017 1.7873254-1.7871017h23.480267c.9945601 0 1.7873254.8070782 1.7873254 1.7871017v2.0753438c0 .9944356-.8071792 1.7871016-1.7873254 1.7871016z"/><ellipse cx="32.359238" cy="26.97947" opacity=".3" rx="13.534666" ry="13.532971"/><path d="m32.3592384 13.4609107c-.0576556 0-.1008974 0-.1441391.0144121v13.5762076l11.7905822 6.8025159c1.1963549-2.0176954 1.8882228-4.3524572 1.8882228-6.8601644 0-7.479885-6.0538441-13.5329712-13.5346659-13.5329712z"/></g></g><rect fill="#fff" height="66.315488" rx="4.095" width="102.351531" x="349.45164" y="207.95227"/><rect fill="url(#c)" height="11.461936" rx="4.095" transform="matrix(1 0 0 -1 0 376.606472)" width="51.175765" x="349.45164" y="182.572268"/><g fill="#fff"><rect height="43.391615" opacity=".573544" rx="4.095" width="55.679233" x="49.766359" y="272.630338"/><rect height="10.643226" opacity=".5" rx="4.095" width="37.665363" x="112.671121" y="272.630338"/><rect height="7.583268" rx="3.791634" width="66.323792" x="112.671121" y="286.742877"/></g><path d="m486.430019 220.938643v124.147505c0 3.617287-2.932758 6.549678-6.550498 6.549678h-129.255638v-40.464601c0-7.689461 6.23354-13.923001 13.923001-13.923001h87.591285c7.689461 0 13.923-6.23354 13.923-13.923v-48.46358c0-7.689461 6.23354-13.923001 13.923001-13.923001z" fill="url(#u)" opacity=".2"/><g transform="matrix(-1 0 0 1 516.974447 137.91359)"><ellipse cx="63.887986" cy="46.420841" fill="url(#w)" rx="46.303805" ry="46.420841"/><path d="m27.7868138 17.3492809c3.5844379-.8920888 7.3337981-1.3655155 11.1934542-1.3655155 25.5728851 0 46.3038046 20.7833186 46.3038046 46.4208413 0 11.0048806-3.8197692 21.1153514-10.2026321 29.0715604-3.5844379.8920888-7.3337981 1.3655154-11.1934542 1.3655154-25.5728852 0-46.3038046-20.7833185-46.3038046-46.4208412 0-11.0048807 3.8197692-21.1153514 10.2026321-29.0715604z" fill="url(#x)"/><ellipse cx="33.42092" cy="58.631126" fill="url(#y)" rx="9.278995" ry="8.042354" transform="matrix(.79863551 .60181502 -.60181502 .79863551 42.014879 -8.306985)"/><ellipse cx="33.42092" cy="58.631126" fill="url(#A)" rx="4.755218" ry="4.121475" transform="matrix(.79863551 .60181502 -.60181502 .79863551 42.014879 -8.306985)"/><path d="m106.552125 28.3496617c2.343658 5.5542717 3.639666 11.6609936 3.639666 18.0711796 0 6.4385017-1.307483 12.5708526-3.670785 18.1447522-13.5946844 11.9023606-29.0563863 13.8783561-39.1514581 13.8783561-5.3280764 0-10.6561528 0-15.9842292 0-2.5329989 0-4.5864002-2.0534013-4.5864002-4.5864001v-18.2434217c0-.0647307.0013704-.1294542.0041102-.1941269.1072134-2.5307241 2.2456842-4.4953678 4.7764087-4.388163 16.9816383.7194219 29.5108611-1.1293368 37.5876685-5.5462763 7.9659269-4.3563026 13.7609331-10.0682692 17.3850191-17.1358999z" fill="url(#C)"/><path d="m67.1141181 66.7196135c.1303578-4.5155035 2.2575604-7.2607324 6.3816078-8.2356868 6.186071-1.4624316 7.5142987 2.5153539 7.5142987 5.3755203 0 2.8601665-1.7612527-1.0898919-5.7750884 0-4.0138358 1.0898919-5.5304897 4.1562349-6.7278856 4.1562349-.7982639 0-1.2625747-.4320228-1.3929325-1.2960684z" fill="#fff" opacity=".2"/><path d="m110.190515 46.0725953c.00085.1159813.001276.2320638.001276.348246 0 1.4663301-.067816 2.9167811-.200474 4.3483725-.807761-.3085173-1.845604-.5128316-3.132222-.1684279-3.734318.9996067-5.145355 3.8119381-6.259366 3.8119381-.7426739 0-1.1746508-.3962347-1.2959307-1.1887039.1212799-4.1414454 2.1003477-6.6592634 5.9372017-7.5534539 2.303839-.5369164 3.883464-.2743066 4.949515.4020291z" fill="#fff" opacity=".2"/><path d="m182.537836 111.754565c-1.729853 9.809255-61.147231 3.601393-68.851619 2.243072s-12.848754-8.704317-11.490262-16.4077401c1.358491-7.7034233 8.705407-12.8471447 16.409794-11.4888233 7.704388 1.3583214 65.66194 15.8442364 63.932087 25.6534914z" fill="url(#D)"/><path d="m74.7998881 194.084582c-14.0787634-.686481-26.1886873-8.063804-36.3297715-22.131968-15.2116264-21.102246-17.7154137-47.68778-16.46352-56.980953 1.2518936-9.293173 6.0921072-16.0489071 7.9057374-16.0489071h43.0250412c4.471246 0 16.1365308-2.9510947 34.9958548-8.8532841 6.892733 2.549589 9.712187 11.8549122 8.45836 27.9159692-1.880741 24.091587-2.097813 31.546918-11.264558 51.366776-6.1111627 13.213239-16.2202108 21.457361-30.3271439 24.732367z" fill="url(#E)"/><path d="m55.5657173 173.097003c-7.8351341 6.120712-47.76057803-38.161473-52.56790886-44.313805-4.80733084-6.152333-3.71636705-15.036407 2.43673583-19.843136 6.15310293-4.806729 15.03828993-3.715902 19.84562083 2.436431 4.8073308 6.152332 38.1206863 55.599799 30.2855522 61.72051z" fill="url(#F)"/><path d="m72.5766329 102.721736c-16.9731951.861065-27.5153785 1.148087-31.6265503.861065-6.1667576-.430532-11.6890727-3.468977-11.6890727-4.9364671 0-1.4674896 1.7234958-2.757363 9.5252174-2.757363 7.8017217 0 17.8259366.3862723 28.6521116-.8719865 10.8261751-1.2582588 29.3270229-5.2825028 33.0108661-6.0268816 3.683843-.7443788 7.003211-.2862553 7.003211.961657 0 1.2479122-.374249 4.1006936-9.6338706 7.5374818-6.1730814 2.2911922-14.5870522 4.0353574-25.2419125 5.2324944z" fill="url(#G)"/><path d="m66.8871958 124.029409c5.7948959-3.065249 9.1331684-1.513435 15.8010839-3.065249 6.6679154-1.551815 11.1425234-3.226533 14.6897646-1.156077 3.5472417 2.070457 5.3041837 17.232674 0 29.619654-5.3041836 12.386979-15.0840182 19.110467-20.3312435 19.110467-5.2472254 0-12.3580033-2.393317-16.4666994-10.751892s-2.0890381-20.22943-2.0890381-23.695925c0-3.466496 3.1778158-7.300714 8.3961325-10.060978z" fill="url(#H)"/><path d="m86.9744474 147.822808c0 1.830557-.5451535 2.448579-2.4998896 3.469165-.9088099.488486-3.0000001 1.470082-5.7270921 2.325758-7.0459263 2.210791-9.7730183 1.073484-9.7730183-3.075502 0-3.417475 1.8639876-5.507448 5.2269816-7.742317l4.7275337-3.15089c1.3638772-.916407 1.8633253-1.317351 1.8633253-1.968242 0-.732104-.635902-.898334-3.3636565-.04245-2.4998896.784388-3.9088099 1.511005-4.8633252 2.013832-1.9997792 1.07503-2.5455951.798728-2.5455951-1.031829v-.406659c0-1.830557.5001104-2.435038 2.4998896-3.469165.5451535-.293168 2.0918526-1.14423 4.8189446-1.999906 6.7266504-2.110613 9.2722455-.876047 9.2722455 3.070203 0 3.335668-1.8182822 5.248874-4.7275336 7.259566l-4.2274233 2.912759c-2.3177302 1.581451-2.8635461 2.037847-2.8635461 2.769951 0 .935434.8637669.908643 3.5001105.081441 3.2278649-1.012803 5.0454846-1.949464 6.1821594-2.59066 1.9997792-1.115933 2.4998896-.703174 2.4998896 1.127383z" fill="#fff"/><path d="m46.7989185 70.1831426v-5.1647821l8.0142146-13.8792888c1.0025677.0236962 1.9885096.0378025 2.9578258.0423191z" fill="#fff" opacity=".2"/><path d="m56.9402511 78.4439496c-1.3254497 0-2.6508994 0-3.9763491 0l15.9945316-27.6998726c1.4713641-.1325451 2.8906827-.2951104 4.2579556-.4876959z" fill="url(#I)"/><path d="m50.9856438 78.4267762c-2.3458464-.2025077-4.1867253-2.1708871-4.1867253-4.5692267v-.2312187l12.9627681-22.4493619c2.4857812-.0230417 4.8568343-.1122592 7.1131595-.2676526z" fill="url(#J)"/></g><rect fill="url(#K)" height="25.380001" rx="4.095" width="48.309922" x="264.758084" y="192.396785"/><g transform="translate(224.172878 158.829686)"><path d="m29.6534563 0 13.4570084 13.4553234v43.6496797c0 1.0173621-.8248382 1.8420969-1.8423276 1.8420969h-39.42580955c-1.01748941 0-1.84232755-.8247348-1.84232755-1.8420969v-55.26290622c0-1.01736202.82483814-1.84209688 1.84232755-1.84209688z" fill="#fff"/><path d="m43.1104647 13.7883693h-11.9367433c-1.0177228 0-1.8427501-.8250274-1.8427501-1.8427501v-11.9456192h.322485l13.4570084 13.4553234z" fill="url(#k)"/><rect fill="url(#l)" height="4.789452" rx="1.84275" width="17.686345" x="4.421586" y="12.526259"/><g fill="url(#m)"><rect height="2.947355" opacity=".5" rx="1.473678" width="34.267292" x="4.421586" y="23.615"/><rect height="2.947355" opacity=".5" rx="1.473678" width="34.267292" x="4.421586" y="29.3255"/><rect height="2.947355" rx="1.473678" width="34.267292" x="4.421586" y="35.036"/></g><rect fill="url(#n)" height="2.947355" opacity=".5" rx="1.473678" width="24.909385" x="4.421586" y="44.983323"/></g><path d="m168.383675 178.782074 18.319996 34.817488c.842488 1.601164.22746 3.582135-1.373704 4.424624-.470386.247504-.993932.376836-1.52546.376836h-36.639993c-1.809285 0-3.276-1.466715-3.276-3.276 0-.531528.129332-1.055073.376837-1.52546l18.319996-34.817488c.842488-1.601164 2.823459-2.216192 4.424623-1.373704.586263.308475 1.065229.787442 1.373705 1.373704z" fill="url(#L)"/><path d="m6.73599749 214.959682v70.592317c0 4.523212 3.66678801 8.19 8.19000031 8.19h25.5228571" stroke="url(#M)" stroke-dasharray="3.279276" stroke-linecap="round" stroke-width="1.639638"/><path d="m297.334684 105.645648v10.640958c0 4.523212 3.666788 8.19 8.190001 8.19h54.435106c4.523213 0 8.190001 3.666788 8.190001 8.190001v13.278226" stroke="url(#N)" stroke-dasharray="2.2932" stroke-linecap="round" stroke-width="1.1466"/></g><g transform="translate(207.000011 263.900015)"><path d="m92.7003154 61.712699h-88.1252117c-2.50541393 0-4.46617266-1.9533914-4.46617266-4.4493915v-45.5791329c0-2.49600018 1.96075873-4.44939159 4.46617266-4.44939159h88.1252117c2.505414 0 4.4661727 1.95339141 4.4661727 4.44939159v45.5791329c0 2.3874784-1.9607587 4.4493915-4.4661727 4.4493915z" fill="url(#c)" opacity=".3"/><path d="m99.9623848 54.477916h-88.1252117c-2.50541397 0-4.46617269-1.9533914-4.46617269-4.4493915v-45.57913295c0-2.49600014 1.96075872-4.44939155 4.46617269-4.44939155h88.1252117c2.5054142 0 4.4661722 1.95339141 4.4661722 4.44939155v45.57913295c0 2.3874784-1.960758 4.4493915-4.4661722 4.4493915z" fill="url(#c)"/><g fill="#fff"><path d="m37.6538297 12.1544355h-18.627208c-1.0893104 0-2.0696897-.868174-2.0696897-2.0619132v-1.41078269c0-1.08521745.8714483-2.06191316 2.0696897-2.06191316h18.627208c1.0893104 0 2.0696897.86817396 2.0696897 2.06191316v1.41078269c0 1.1937392-.8714483 2.0619132-2.0696897 2.0619132z"/><path d="m33.296588 17.3634792h-15.0324835c-.6535863 0-1.3071725-.5426087-1.3071725-1.3022609v-.3255653c0-.6511304.5446552-1.3022609 1.3071725-1.3022609h15.0324835c.6535863 0 1.3071725.5426087 1.3071725 1.3022609v.3255653c0 .6511304-.6535862 1.3022609-1.3071725 1.3022609z"/><path d="m94.4069017 12.6970442v33.641741h-77.9946249s9.3680694-17.7975662 20.0433114-18.1231315c10.675242-.3255652 13.0717249 5.100522 21.1326219 4.2323481 8.060897-.868174 11.4377592-11.3947833 19.8254493-15.7356531s16.9932423-4.0153045 16.9932423-4.0153045z" opacity=".5"/><ellipse cx="94.406902" cy="12.914088" rx="4.248311" ry="4.232348"/></g></g></g></svg>